<svg width="48" height="48" viewBox="0 0 48 48" fill="none" xmlns="http://www.w3.org/2000/svg">
<path d="M24 48C19.2532 48 14.6131 46.5924 10.6663 43.9553C6.71953 41.3181 3.64339 37.5698 1.82689 33.1844C0.0103874 28.799 -0.464893 23.9734 0.461153 19.3178C1.3872 14.6623 3.67298 10.3859 7.02944 7.02945C10.3859 3.67299 14.6623 1.38721 19.3178 0.461164C23.9734 -0.464881 28.799 0.0103989 33.1844 1.8269C37.5698 3.64341 41.3181 6.71954 43.9553 10.6663C46.5924 14.6131 48 19.2533 48 24C48 30.3652 45.4714 36.4697 40.9706 40.9706C36.4697 45.4714 30.3652 48 24 48ZM24 2.00001C19.6488 2.00001 15.3953 3.29029 11.7775 5.70768C8.15957 8.12507 5.33978 11.561 3.67465 15.581C2.00952 19.6009 1.57385 24.0244 2.42272 28.292C3.2716 32.5596 5.36689 36.4796 8.44365 39.5564C11.5204 42.6331 15.4404 44.7284 19.708 45.5773C23.9756 46.4262 28.3991 45.9905 32.419 44.3254C36.439 42.6602 39.8749 39.8404 42.2923 36.2226C44.7097 32.6047 46 28.3512 46 24C46 18.1652 43.6822 12.5695 39.5564 8.44366C35.4305 4.31786 29.8348 2.00001 24 2.00001Z" fill="white"/>
<path d="M24 40C20.8355 40 17.7421 39.0616 15.1109 37.3035C12.4797 35.5454 10.4289 33.0466 9.21793 30.1229C8.00692 27.1993 7.69007 23.9823 8.30744 20.8786C8.9248 17.7749 10.4487 14.9239 12.6863 12.6863C14.9239 10.4487 17.7749 8.92481 20.8786 8.30744C23.9823 7.69008 27.1993 8.00693 30.1229 9.21793C33.0466 10.4289 35.5454 12.4797 37.3035 15.1109C39.0616 17.7421 40 20.8355 40 24C40 28.2435 38.3143 32.3131 35.3137 35.3137C32.3131 38.3143 28.2435 40 24 40ZM24 10C21.2311 10 18.5243 10.8211 16.222 12.3594C13.9197 13.8978 12.1253 16.0843 11.0657 18.6424C10.0061 21.2006 9.72881 24.0155 10.269 26.7313C10.8092 29.447 12.1426 31.9416 14.1005 33.8995C16.0584 35.8574 18.553 37.1908 21.2687 37.731C23.9845 38.2712 26.7994 37.9939 29.3576 36.9343C31.9157 35.8747 34.1022 34.0803 35.6406 31.778C37.1789 29.4757 38 26.7689 38 24C38 20.287 36.525 16.726 33.8995 14.1005C31.274 11.475 27.713 10 24 10Z" fill="white"/>
<path d="M24 33C22.6739 33 21.4021 32.4732 20.4645 31.5355C19.5268 30.5979 19 29.3261 19 28H21C21 28.5933 21.1759 29.1734 21.5056 29.6667C21.8352 30.1601 22.3038 30.5446 22.852 30.7716C23.4001 30.9987 24.0033 31.0581 24.5853 30.9424C25.1672 30.8266 25.7018 30.5409 26.1213 30.1213C26.5409 29.7018 26.8266 29.1672 26.9424 28.5853C27.0581 28.0033 26.9987 27.4001 26.7716 26.852C26.5446 26.3038 26.1601 25.8352 25.6667 25.5056C25.1734 25.1759 24.5933 25 24 25C23.0111 25 22.0444 24.7068 21.2221 24.1574C20.3999 23.6079 19.759 22.8271 19.3806 21.9134C19.0022 20.9998 18.9031 19.9945 19.0961 19.0246C19.289 18.0546 19.7652 17.1637 20.4645 16.4645C21.1637 15.7652 22.0546 15.289 23.0245 15.0961C23.9945 14.9031 24.9998 15.0022 25.9134 15.3806C26.827 15.759 27.6079 16.3999 28.1573 17.2222C28.7068 18.0444 29 19.0111 29 20H27C27 19.4067 26.8241 18.8266 26.4944 18.3333C26.1648 17.8399 25.6962 17.4554 25.1481 17.2284C24.5999 17.0013 23.9967 16.9419 23.4147 17.0576C22.8328 17.1734 22.2982 17.4591 21.8787 17.8787C21.4591 18.2982 21.1734 18.8328 21.0576 19.4147C20.9419 19.9967 21.0013 20.5999 21.2284 21.1481C21.4554 21.6962 21.8399 22.1648 22.3333 22.4944C22.8266 22.8241 23.4067 23 24 23C25.3261 23 26.5979 23.5268 27.5355 24.4645C28.4732 25.4022 29 26.6739 29 28C29 29.3261 28.4732 30.5979 27.5355 31.5355C26.5979 32.4732 25.3261 33 24 33Z" fill="white"/>
<path d="M25 32H23V36H25V32Z" fill="white"/>
<path d="M25 12H23V16H25V12Z" fill="white"/>
<path d="M34 23H32V25H34V23Z" fill="white"/>
<path d="M16 23H14V25H16V23Z" fill="white"/>
<path d="M6 23H4V25H6V23Z" fill="white"/>
<path d="M44 23H42V25H44V23Z" fill="white"/>
<path d="M35 7H33V9H35V7Z" fill="white"/>
<path d="M25 4H23V6H25V4Z" fill="white"/>
<path d="M25 42H23V44H25V42Z" fill="white"/>
<path d="M15 7H13V9H15V7Z" fill="white"/>
<path d="M35 39H33V41H35V39Z" fill="white"/>
<path d="M15 39H13V41H15V39Z" fill="white"/>
<path d="M8 14H6V16H8V14Z" fill="white"/>
<path d="M8 32H6V34H8V32Z" fill="white"/>
<path d="M42 14H40V16H42V14Z" fill="white"/>
<path d="M42 32H40V34H42V32Z" fill="white"/>
</svg>
