<svg width="48" height="48" viewBox="0 0 48 48" fill="none" xmlns="http://www.w3.org/2000/svg">
<path d="M1.00036 36C0.923999 36.0097 0.846715 36.0097 0.770357 36C0.546627 35.9472 0.347915 35.819 0.207671 35.6368C0.0674266 35.4547 -0.00578596 35.2298 0.000357412 35C0.000357412 27.8392 2.84499 20.9716 7.90847 15.9081C12.972 10.8446 19.8395 8 27.0004 8H30.0004V1C30.0004 0.814289 30.0521 0.632245 30.1497 0.474269C30.2473 0.316293 30.387 0.188626 30.5531 0.105573C30.7192 0.0225204 30.9052 -0.0126368 31.0902 0.00404116C31.2751 0.0207191 31.4518 0.0885733 31.6004 0.2L47.6004 12.2C47.7246 12.2931 47.8254 12.4139 47.8948 12.5528C47.9642 12.6916 48.0004 12.8448 48.0004 13C48.0004 13.1552 47.9642 13.3084 47.8948 13.4472C47.8254 13.5861 47.7246 13.7069 47.6004 13.8L31.6004 25.8C31.4518 25.9114 31.2751 25.9793 31.0902 25.996C30.9052 26.0126 30.7192 25.9775 30.5531 25.8944C30.387 25.8114 30.2473 25.6837 30.1497 25.5257C30.0521 25.3678 30.0004 25.1857 30.0004 25V18H27.3004C22.2834 17.9837 17.3622 19.3739 13.0953 22.0129C8.82842 24.6519 5.38659 28.4339 3.16036 32.93L1.89036 35.45C1.80726 35.6149 1.68012 35.7536 1.52302 35.8507C1.36593 35.9478 1.18502 35.9994 1.00036 36ZM27.0004 10C21.2388 10.0011 15.6545 11.9923 11.192 15.6366C6.72945 19.281 3.66267 24.3549 2.51036 30C5.07813 25.7211 8.71223 22.1817 13.0574 19.7278C17.4026 17.2739 22.3101 15.9894 27.3004 16H31.0004C31.2656 16 31.5199 16.1054 31.7075 16.2929C31.895 16.4804 32.0004 16.7348 32.0004 17V23L45.3304 13L32.0004 3V9C32.0004 9.26522 31.895 9.51957 31.7075 9.70711C31.5199 9.89464 31.2656 10 31.0004 10H27.0004Z" fill="white"/>
<path d="M41.0004 48H1.00036C0.735142 48 0.480788 47.8946 0.293252 47.7071C0.105715 47.5196 0.000358582 47.2652 0.000358582 47V38H2.00036V46H40.0004V24H38.0004V22H41.0004C41.2656 22 41.5199 22.1054 41.7075 22.2929C41.895 22.4804 42.0004 22.7348 42.0004 23V47C42.0004 47.2652 41.895 47.5196 41.7075 47.7071C41.5199 47.8946 41.2656 48 41.0004 48Z" fill="white"/>
<path d="M29.0004 22H15.0004V24H29.0004V22Z" fill="white"/>
<path d="M32.0004 39C31.2092 39 30.4359 38.7654 29.7781 38.3259C29.1203 37.8864 28.6076 37.2616 28.3048 36.5307C28.0021 35.7998 27.9229 34.9956 28.0772 34.2196C28.2316 33.4437 28.6125 32.731 29.1719 32.1716C29.7313 31.6122 30.4441 31.2312 31.22 31.0769C31.9959 30.9225 32.8002 31.0017 33.5311 31.3045C34.262 31.6072 34.8867 32.1199 35.3262 32.7777C35.7658 33.4355 36.0004 34.2089 36.0004 35C36.0004 36.0609 35.5789 37.0783 34.8288 37.8284C34.0786 38.5786 33.0612 39 32.0004 39ZM32.0004 33C31.6048 33 31.2181 33.1173 30.8892 33.3371C30.5603 33.5568 30.304 33.8692 30.1526 34.2346C30.0012 34.6001 29.9616 35.0022 30.0388 35.3902C30.116 35.7781 30.3064 36.1345 30.5861 36.4142C30.8658 36.6939 31.2222 36.8844 31.6102 36.9616C31.9981 37.0387 32.4003 36.9991 32.7657 36.8478C33.1312 36.6964 33.4435 36.44 33.6633 36.1111C33.8831 35.7822 34.0004 35.3956 34.0004 35C34.0004 34.4696 33.7896 33.9609 33.4146 33.5858C33.0395 33.2107 32.5308 33 32.0004 33Z" fill="white"/>
<path d="M10.0004 39C9.20924 39 8.43588 38.7654 7.77808 38.3259C7.12028 37.8864 6.60759 37.2616 6.30484 36.5307C6.00209 35.7998 5.92288 34.9956 6.07722 34.2196C6.23156 33.4437 6.61252 32.731 7.17193 32.1716C7.73134 31.6122 8.44408 31.2312 9.22 31.0769C9.99592 30.9225 10.8002 31.0017 11.5311 31.3045C12.262 31.6072 12.8867 32.1199 13.3262 32.7777C13.7658 33.4355 14.0004 34.2089 14.0004 35C14.0004 36.0609 13.5789 37.0783 12.8288 37.8284C12.0786 38.5786 11.0612 39 10.0004 39ZM10.0004 33C9.6048 33 9.21812 33.1173 8.88922 33.3371C8.56032 33.5568 8.30398 33.8692 8.1526 34.2346C8.00123 34.6001 7.96162 35.0022 8.03879 35.3902C8.11596 35.7781 8.30644 36.1345 8.58615 36.4142C8.86585 36.6939 9.22222 36.8844 9.61018 36.9616C9.99814 37.0387 10.4003 36.9991 10.7657 36.8478C11.1312 36.6964 11.4435 36.44 11.6633 36.1111C11.8831 35.7822 12.0004 35.3956 12.0004 35C12.0004 34.4696 11.7896 33.9609 11.4146 33.5858C11.0395 33.2107 10.5308 33 10.0004 33Z" fill="white"/>
<path d="M21.0004 42C19.9395 42 18.9221 41.5786 18.1719 40.8284C17.4218 40.0783 17.0004 39.0609 17.0004 38H19.0004C19.0004 38.3956 19.1177 38.7822 19.3374 39.1111C19.5572 39.44 19.8695 39.6964 20.235 39.8478C20.6004 39.9991 21.0026 40.0387 21.3905 39.9616C21.7785 39.8844 22.1349 39.6939 22.4146 39.4142C22.6943 39.1345 22.8848 38.7781 22.9619 38.3902C23.0391 38.0022 22.9995 37.6001 22.8481 37.2346C22.6967 36.8692 22.4404 36.5568 22.1115 36.3371C21.7826 36.1173 21.3959 36 21.0004 36C20.2092 36 19.4359 35.7654 18.7781 35.3259C18.1203 34.8864 17.6076 34.2616 17.3048 33.5307C17.0021 32.7998 16.9229 31.9956 17.0772 31.2196C17.2316 30.4437 17.6125 29.731 18.1719 29.1716C18.7313 28.6122 19.4441 28.2312 20.22 28.0769C20.9959 27.9225 21.8002 28.0017 22.5311 28.3045C23.262 28.6072 23.8867 29.1199 24.3262 29.7777C24.7658 30.4355 25.0004 31.2089 25.0004 32H23.0004C23.0004 31.6044 22.8831 31.2178 22.6633 30.8889C22.4435 30.56 22.1312 30.3036 21.7657 30.1522C21.4003 30.0009 20.9981 29.9613 20.6102 30.0384C20.2222 30.1156 19.8658 30.3061 19.5861 30.5858C19.3064 30.8655 19.116 31.2219 19.0388 31.6098C18.9616 31.9978 19.0012 32.3999 19.1526 32.7654C19.304 33.1308 19.5603 33.4432 19.8892 33.6629C20.2181 33.8827 20.6048 34 21.0004 34C22.0612 34 23.0786 34.4214 23.8288 35.1716C24.5789 35.9217 25.0004 36.9391 25.0004 38C25.0004 39.0609 24.5789 40.0783 23.8288 40.8284C23.0786 41.5786 22.0612 42 21.0004 42Z" fill="white"/>
<path d="M22.0004 41H20.0004V44H22.0004V41Z" fill="white"/>
<path d="M22.0004 26H20.0004V29H22.0004V26Z" fill="white"/>
<path d="M6.00036 42H4.00036V44H6.00036V42Z" fill="white"/>
<path d="M38.0004 26H36.0004V28H38.0004V26Z" fill="white"/>
<path d="M38.0004 42H36.0004V44H38.0004V42Z" fill="white"/>
</svg>
