<svg width="48" height="48" viewBox="0 0 48 48" fill="none" xmlns="http://www.w3.org/2000/svg">
<path d="M9 44.9912H1C0.734784 44.9912 0.48043 44.8859 0.292893 44.6983C0.105357 44.5108 0 44.2564 0 43.9912V29.9912C0 29.726 0.105357 29.4716 0.292893 29.2841C0.48043 29.0966 0.734784 28.9912 1 28.9912H9C9.26522 28.9912 9.51957 29.0966 9.70711 29.2841C9.89464 29.4716 10 29.726 10 29.9912V43.9912C10 44.2564 9.89464 44.5108 9.70711 44.6983C9.51957 44.8859 9.26522 44.9912 9 44.9912ZM2 42.9912H8V30.9912H2V42.9912Z" fill="white"/>
<path d="M27 47.9911H26.78L8.78 43.9911L9.22 41.9911L26.87 45.9911L46 36.3711V35.2311L33.21 37.9911L32.79 35.9911L46.79 32.9911C46.9377 32.9593 47.0906 32.9615 47.2374 32.9973C47.3841 33.0331 47.5209 33.1017 47.6373 33.1979C47.7537 33.2942 47.8469 33.4155 47.9097 33.5529C47.9725 33.6903 48.0034 33.8401 48 33.9911V36.9911C47.9994 37.1758 47.9478 37.3567 47.8507 37.5138C47.7536 37.6709 47.6149 37.798 47.45 37.8811L27.45 47.8811C27.3107 47.9525 27.1565 47.9902 27 47.9911Z" fill="white"/>
<path d="M24 40.9912C23.9107 41.0065 23.8193 41.0065 23.73 40.9912L16.73 38.9912L17.27 36.9912L24.08 38.9912L32 38.0912V35.9912H25C24.8435 35.9903 24.6893 35.9526 24.55 35.8812L16.76 31.9912H9V29.9912H17C17.1565 29.9921 17.3107 30.0298 17.45 30.1012L25.24 33.9912H33C33.2652 33.9912 33.5196 34.0966 33.7071 34.2841C33.8946 34.4716 34 34.726 34 34.9912V38.9912C34.0015 39.2384 33.9114 39.4774 33.747 39.6621C33.5827 39.8468 33.3557 39.964 33.11 39.9912L24.11 40.9912H24Z" fill="white"/>
<path d="M6 38.9912H4V40.9912H6V38.9912Z" fill="white"/>
<path d="M29 25.9912C27.9391 25.9912 26.9217 25.5698 26.1716 24.8196C25.4214 24.0695 25 23.0521 25 21.9912H27C27 22.3868 27.1173 22.7735 27.3371 23.1024C27.5568 23.4313 27.8692 23.6876 28.2346 23.839C28.6001 23.9903 29.0022 24.03 29.3902 23.9528C29.7781 23.8756 30.1345 23.6851 30.4142 23.4054C30.6939 23.1257 30.8844 22.7694 30.9616 22.3814C31.0387 21.9934 30.9991 21.5913 30.8478 21.2258C30.6964 20.8604 30.44 20.548 30.1111 20.3283C29.7822 20.1085 29.3956 19.9912 29 19.9912C28.2089 19.9912 27.4355 19.7566 26.7777 19.3171C26.1199 18.8776 25.6072 18.2529 25.3045 17.5219C25.0017 16.791 24.9225 15.9868 25.0769 15.2109C25.2312 14.4349 25.6122 13.7222 26.1716 13.1628C26.731 12.6034 27.4437 12.2224 28.2196 12.0681C28.9956 11.9137 29.7998 11.9929 30.5307 12.2957C31.2616 12.5984 31.8864 13.1111 32.3259 13.7689C32.7654 14.4267 33 15.2001 33 15.9912H31C31 15.5957 30.8827 15.209 30.6629 14.8801C30.4432 14.5512 30.1308 14.2948 29.7654 14.1435C29.3999 13.9921 28.9978 13.9525 28.6098 14.0296C28.2219 14.1068 27.8655 14.2973 27.5858 14.577C27.3061 14.8567 27.1156 15.2131 27.0384 15.601C26.9613 15.989 27.0009 16.3911 27.1522 16.7566C27.3036 17.122 27.56 17.4344 27.8889 17.6542C28.2178 17.8739 28.6044 17.9912 29 17.9912C30.0609 17.9912 31.0783 18.4126 31.8284 19.1628C32.5786 19.9129 33 20.9303 33 21.9912C33 23.0521 32.5786 24.0695 31.8284 24.8196C31.0783 25.5698 30.0609 25.9912 29 25.9912Z" fill="white"/>
<path d="M30 24.9912H28V27.9912H30V24.9912Z" fill="white"/>
<path d="M30 9.99121H28V12.9912H30V9.99121Z" fill="white"/>
<path d="M29 30.9912C26.6266 30.9912 24.3066 30.2874 22.3332 28.9689C20.3598 27.6503 18.8217 25.7761 17.9135 23.5834C17.0052 21.3907 16.7676 18.9779 17.2306 16.6501C17.6936 14.3224 18.8365 12.1842 20.5147 10.5059C22.193 8.82771 24.3311 7.68482 26.6589 7.22179C28.9867 6.75877 31.3995 6.99641 33.5922 7.90466C35.7849 8.81291 37.6591 10.351 38.9776 12.3244C40.2962 14.2978 41 16.6178 41 18.9912C41 22.1738 39.7357 25.2261 37.4853 27.4765C35.2348 29.7269 32.1826 30.9912 29 30.9912ZM29 8.99122C27.0222 8.99122 25.0888 9.57771 23.4443 10.6765C21.7998 11.7753 20.5181 13.3371 19.7612 15.1644C19.0043 16.9916 18.8063 19.0023 19.1922 20.9421C19.578 22.8819 20.5304 24.6638 21.9289 26.0623C23.3275 27.4608 25.1093 28.4132 27.0491 28.7991C28.9889 29.1849 30.9996 28.9869 32.8268 28.23C34.6541 27.4731 36.2159 26.1914 37.3147 24.5469C38.4135 22.9024 39 20.969 39 18.9912C39 16.3391 37.9464 13.7955 36.0711 11.9201C34.1957 10.0448 31.6522 8.99122 29 8.99122Z" fill="white"/>
<path d="M47 17.9912H40V19.9912H47V17.9912Z" fill="white"/>
<path d="M18 17.9912H11V19.9912H18V17.9912Z" fill="white"/>
<path d="M30 29.9912H28V33.9912H30V29.9912Z" fill="white"/>
<path d="M30 0.991211H28V7.99121H30V0.991211Z" fill="white"/>
<path d="M41.0189 5.56246L36.0691 10.5122L37.4834 11.9264L42.4331 6.97667L41.0189 5.56246Z" fill="white"/>
<path d="M20.5183 26.0552L16.2968 30.2766L17.7111 31.6908L21.9325 27.4694L20.5183 26.0552Z" fill="white"/>
<path d="M41.73 32.7211C41.5984 32.7219 41.4679 32.6967 41.3461 32.6469C41.2243 32.5971 41.1134 32.5238 41.02 32.4311L36.02 27.4811L37.44 26.0611L41.66 30.2811C43.769 27.9048 45.1698 24.985 45.7036 21.8529C46.2374 18.7208 45.8828 15.5018 44.68 12.5611C43.4771 9.62033 41.4743 7.0755 38.8985 5.21526C36.3228 3.35503 33.2773 2.25385 30.1075 2.03662C26.9377 1.8194 23.7705 2.49483 20.9651 3.9863C18.1596 5.47777 15.8283 7.72558 14.2356 10.4748C12.6428 13.2239 11.8524 16.3645 11.9539 19.5401C12.0555 22.7157 13.0449 25.7993 14.81 28.4411L13.2 29.5511C11.2016 26.5584 10.0942 23.0596 10.0067 19.462C9.91918 15.8644 10.8552 12.316 12.7057 9.2296C14.5562 6.14321 17.2452 3.64583 20.4598 2.02809C23.6743 0.410344 27.2822 -0.261235 30.8635 0.0915077C34.4448 0.44425 37.8523 1.80681 40.6894 4.02061C43.5266 6.23442 45.6767 9.20843 46.8895 12.5965C48.1023 15.9847 48.328 19.6475 47.5403 23.1589C46.7526 26.6703 44.9839 29.8858 42.44 32.4311C42.2484 32.6139 41.9948 32.7174 41.73 32.7211Z" fill="white"/>
<path d="M16.9877 5.5582L15.5735 6.97241L20.5232 11.9222L21.9374 10.5079L16.9877 5.5582Z" fill="white"/>
</svg>
